<svg xmlns="http://www.w3.org/2000/svg" id="Capa_1" height="512" viewBox="0 0 512.001 512.001" width="512"><g><path d="m248 186.001h-60c-5.523 0-10 4.478-10 10v60c0 5.522 4.477 10 10 10h60c5.523 0 10-4.478 10-10v-60c0-5.522-4.477-10-10-10zm-10 60h-40v-40h40z"></path><path d="m397 282.001c-6.395 0-12.747.537-19 1.575v-63.814l3.828 2.85c4.26 3.171 10.255 2.46 13.654-1.62l38.4-46.08c3.645-4.372 2.905-10.91-1.625-14.357l-68.496-52.148c-4.395-3.345-10.668-2.495-14.014 1.898-3.346 4.395-2.495 10.669 1.899 14.014l60.182 45.818-25.65 30.78-162.203-120.825c-3.545-2.641-8.403-2.641-11.948 0l-162.185 120.811-25.494-30.753 193.655-147.578 62.063 47.25c4.395 3.345 10.668 2.495 14.014-1.898 3.346-4.395 2.495-10.669-1.899-14.015l-68.123-51.864c-3.581-2.729-8.541-2.727-12.119.002l-208 158.51c-4.519 3.445-5.264 9.961-1.638 14.336l38.2 46.08c3.402 4.104 9.411 4.81 13.67 1.64l3.828-2.85v186.239c0 5.522 4.477 10 10 10h215.581c9.129 54.906 56.794 96 113.419 96 63.411 0 115-51.589 115-115s-51.587-115.001-114.999-115.001zm-114.98 114h-204.02v-191.13l140-104.29 140 104.29v83.947c-43.981 15.918-75.562 57.615-75.98 107.183zm114.98 96c-51.566 0-95-42.329-95-95 0-51.718 41.998-95 95-95 52.383 0 95 42.617 95 95s-42.616 95-95 95z"></path><path d="m442 387.001h-35v-35c0-5.522-4.477-10-10-10s-10 4.478-10 10v45c0 5.522 4.477 10 10 10h45c5.523 0 10-4.478 10-10s-4.477-10-10-10z"></path><circle cx="322" cy="89.001" r="10"></circle></g></svg>